<?xml version="1.0" standalone="no"?><!DOCTYPE svg PUBLIC "-//W3C//DTD SVG 1.1//EN" "http://www.w3.org/Graphics/SVG/1.1/DTD/svg11.dtd"><svg t="1592588029478" class="icon" viewBox="0 0 1024 1024" version="1.1" xmlns="http://www.w3.org/2000/svg" p-id="3397" xmlns:xlink="http://www.w3.org/1999/xlink" width="50" height="50"><defs><style type="text/css"></style></defs><path d="M1010.6 225.1c-20.5-35.5-75.3-71.4-219.9-41.6-34-29.3-72.1-53-113.6-70.6-53.3-22.5-109.8-34-168.1-34s-114.9 11.4-168.1 34c-51.4 21.8-97.6 52.9-137.3 92.5-39.7 39.7-70.8 85.8-92.5 137.3-22.5 53.3-34 109.8-34 168.1 0 27.9 2.6 55.5 7.8 82.5-1.3 1.1-2.5 2.2-3.6 3.5C-10.2 702.9-5.8 766.1 14 800.5c20.2 35 62.3 52.7 123.8 52.7 27.6 0 59.1-3.6 94.2-10.7 32.8 27.4 69.2 49.7 108.7 66.4 53.3 22.5 109.8 34 168.1 34s114.9-11.4 168.1-34c51.4-21.8 97.6-52.9 137.3-92.5s70.8-85.8 92.5-137.3c22.5-53.3 34-109.8 34-168.1 0-24.5-2-48.7-6-72.5 79.3-88.4 105.5-162 75.9-213.4z m-97 9c16.2 2.2 37.2 7.6 45 21.1 8.1 14.1 1.6 36.1-5.4 52.1-7.8 17.9-20.3 38.1-37 59.8-2.9-8.1-6-16.2-9.4-24.2-16.5-38.9-38.3-74.8-65.1-107.1 28-3.8 52.4-4.3 71.9-1.7zM508.9 139c173.8 0 320.1 119.8 360.7 281.2-70.7 72.6-171.6 148.2-286.8 214.7C466 702.4 348.4 752.4 249.3 777 180.1 709.4 137 615.1 137 510.9c0-205 166.8-371.9 371.9-371.9zM113.8 791.9c-17.3-2-39.7-7.3-47.8-21.4-9.3-16-2.8-51.9 38.7-107.1 2 5.3 4.1 10.5 6.3 15.7 17.2 40.6 40.2 77.9 68.6 111.3-25.2 3-47.5 3.6-65.8 1.5z m395.1 90.9c-74.3 0-143.6-21.9-201.7-59.6 94.3-28.5 200.6-75.7 305.6-136.4C716.2 627.2 809 560 880.4 493.5c0.3 5.8 0.4 11.6 0.4 17.4 0 205.1-166.8 371.9-371.9 371.9z" fill="#b4b2b2" p-id="3398"></path></svg>
